<?xml version="1.0" encoding="UTF-8"?>
<!DOCTYPE svg PUBLIC "-//W3C//DTD SVG 1.1//EN" "http://www.w3.org/Graphics/SVG/1.1/DTD/svg11.dtd">
<svg xmlns="http://www.w3.org/2000/svg" version="1.1" width="8434px" height="7676px" style="shape-rendering:geometricPrecision; text-rendering:geometricPrecision; image-rendering:optimizeQuality; fill-rule:evenodd; clip-rule:evenodd" xmlns:xlink="http://www.w3.org/1999/xlink">
<g><path style="opacity:0.998" fill="#172d56" d="M 7311.5,713.5 C 6923.5,717.167 6535.5,720.833 6147.5,724.5C 6351.46,620.852 6555.79,517.685 6760.5,415C 7108.82,410.68 7457.15,406.847 7805.5,403.5C 7817.17,403.667 7828.83,403.833 7840.5,404C 7664.47,507.683 7488.13,610.849 7311.5,713.5 Z"/></g>
<g><path style="opacity:0.999" fill="#172c56" d="M 7495.5,5743.5 C 7495.5,4165.83 7495.5,2588.17 7495.5,1010.5C 7667.01,899.484 7838.85,788.817 8011,678.5C 8011.17,1409.17 8011.33,2139.83 8011.5,2870.5C 8011.33,3601.17 8011.17,4331.83 8011,5062.5C 7839.3,5289.68 7667.47,5516.68 7495.5,5743.5 Z"/></g>
<g><path style="opacity:0.999" fill="#32cb98" d="M 7311.5,713.5 C 5784.15,1648.6 4256.65,2583.6 2729,3518.5C 1974.16,2983.75 1219.49,2448.75 465,1913.5C 468.479,1672.17 472.312,1430.84 476.5,1189.5C 1237.01,1723.84 1997.68,2258 2758.5,2792C 2759.5,2792.67 2760.5,2792.67 2761.5,2792C 2963.06,2669.06 3164.4,2545.89 3365.5,2422.5C 4292.59,1856.08 5219.92,1290.08 6147.5,724.5C 6535.5,720.833 6923.5,717.167 7311.5,713.5 Z"/></g>
<g><path style="opacity:0.999" fill="#182d56" d="M 3365.5,2422.5 C 3164.4,2545.89 2963.06,2669.06 2761.5,2792C 2760.5,2792.67 2759.5,2792.67 2758.5,2792C 1997.68,2258 1237.01,1723.84 476.5,1189.5C 734.725,1105.54 993.059,1021.54 1251.5,937.5C 1956.58,1432.03 2661.25,1927.03 3365.5,2422.5 Z"/></g>
<g><path style="opacity:0.999" fill="#32cb98" d="M 7495.5,1010.5 C 7495.5,2588.17 7495.5,4165.83 7495.5,5743.5C 7098.17,5743.67 6700.83,5743.5 6303.5,5743C 5464.6,5153.1 4625.43,4563.6 3786,3974.5C 2950.34,4484.15 2114.68,4993.82 1279,5503.5C 1276.74,5271.82 1275.24,5040.15 1274.5,4808.5C 1275.31,4808.19 1275.97,4807.69 1276.5,4807C 3349.4,3541.25 5422.4,2275.75 7495.5,1010.5 Z M 6877.5,4700.5 C 6213.5,4234.83 5549.5,3769.17 4885.5,3303.5C 5539.79,2904.23 6194.13,2504.9 6848.5,2105.5C 6858.54,2970.52 6868.21,3835.52 6877.5,4700.5 Z M 5920.5,3093.5 C 5920.5,3253.83 5920.5,3414.17 5920.5,3574.5C 5887.2,3593.44 5853.87,3612.44 5820.5,3631.5C 5819.33,3432.83 5819.17,3234.17 5820,3035.5C 5853.61,3054.72 5887.11,3074.05 5920.5,3093.5 Z"/></g>
<g><path style="opacity:0.999" fill="#32cb98" d="M 472.5,2219.5 C 640.982,2343.58 809.315,2467.91 977.5,2592.5C 983.976,3620.2 990.309,4647.87 996.5,5675.5C 995.252,5677.46 993.585,5678.96 991.5,5680C 930.167,5716 868.833,5752 807.5,5788C 695.5,5788.5 583.5,5788.67 471.5,5788.5C 472.169,4598.83 472.503,3409.17 472.5,2219.5 Z"/></g>
<g><path style="opacity:0.997" fill="#182d56" d="M 5920.5,3693.5 C 5923.32,3690.53 5926.66,3688.03 5930.5,3686C 6134,3568.75 6337.33,3451.25 6540.5,3333.5C 6333.77,3213.81 6127.1,3094.14 5920.5,2974.5C 5920.17,2927.83 5920.5,2881.16 5921.5,2834.5C 6212.16,3001.83 6502.49,3169.66 6792.5,3338C 6502.08,3505.96 6211.58,3673.79 5921,3841.5C 5920.5,3792.17 5920.33,3742.83 5920.5,3693.5 Z"/></g>
<g><path style="opacity:0.999" fill="#32cb98" d="M 5920.5,2974.5 C 6127.1,3094.14 6333.77,3213.81 6540.5,3333.5C 6337.33,3451.25 6134,3568.75 5930.5,3686C 5926.66,3688.03 5923.32,3690.53 5920.5,3693.5C 5852.23,3731.97 5784.23,3770.97 5716.5,3810.5C 5715.33,3492.5 5715.17,3174.5 5716,2856.5C 5784.28,2895.72 5852.44,2935.05 5920.5,2974.5 Z M 5920.5,3093.5 C 5920.5,3253.83 5920.5,3414.17 5920.5,3574.5C 5887.2,3593.44 5853.87,3612.44 5820.5,3631.5C 5819.33,3432.83 5819.17,3234.17 5820,3035.5C 5853.61,3054.72 5887.11,3074.05 5920.5,3093.5 Z"/></g>
<g><path style="opacity:1" fill="#182d57" d="M 5920.5,3093.5 C 6059.77,3173.14 6198.77,3253.3 6337.5,3334C 6198.47,3414.18 6059.47,3494.35 5920.5,3574.5C 5920.5,3414.17 5920.5,3253.83 5920.5,3093.5 Z"/></g>
<g><path style="opacity:1" fill="#182d57" d="M 4885.5,3303.5 C 5549.5,3769.17 6213.5,4234.83 6877.5,4700.5C 6879.71,4922.83 6882.04,5145.17 6884.5,5367.5C 6884.83,5384.01 6884.5,5400.34 6883.5,5416.5C 6036.38,4822.55 5189.38,4228.39 4342.5,3634C 4523.22,3523.31 4704.22,3413.14 4885.5,3303.5 Z"/></g>
<g><path style="opacity:1" fill="#27857b" d="M 6884.5,5367.5 C 6885.83,5384 6885.83,5400.67 6884.5,5417.5C 6883.89,5417.38 6883.56,5417.04 6883.5,5416.5C 6884.5,5400.34 6884.83,5384.01 6884.5,5367.5 Z"/></g>
<g><path style="opacity:0.997" fill="#32cb98" d="M 1686.5,5926.5 C 1686.5,6207.5 1686.5,6488.5 1686.5,6769.5C 1648,6769.17 1609.66,6769.5 1571.5,6770.5C 1570.67,6578.33 1570.17,6386 1570,6193.5C 1503.5,6346.5 1437,6499.5 1370.5,6652.5C 1342.6,6653.83 1314.77,6653.83 1287,6652.5C 1220.33,6503.17 1153.67,6353.83 1087,6204.5C 1086.5,6393.17 1086.33,6581.83 1086.5,6770.5C 1047.83,6770.5 1009.17,6770.5 970.5,6770.5C 970.5,6489.17 970.5,6207.83 970.5,5926.5C 1007.74,5926.17 1044.91,5926.5 1082,5927.5C 1164.15,6112.28 1246.48,6296.95 1329,6481.5C 1410.89,6296.72 1493.06,6112.05 1575.5,5927.5C 1612.49,5926.5 1649.49,5926.17 1686.5,5926.5 Z"/></g>
<g><path style="opacity:0.078" fill="#29bf8d" d="M 1686.5,5926.5 C 1687.5,6207.67 1687.83,6489 1687.5,6770.5C 1648.83,6770.5 1610.17,6770.5 1571.5,6770.5C 1609.66,6769.5 1648,6769.17 1686.5,6769.5C 1686.5,6488.5 1686.5,6207.5 1686.5,5926.5 Z"/></g>
<g><path style="opacity:0.992" fill="#32cb98" d="M 7461.5,5992.5 C 7501.17,5992.5 7540.83,5992.5 7580.5,5992.5C 7580.5,6050.83 7580.5,6109.17 7580.5,6167.5C 7610.83,6167.5 7641.17,6167.5 7671.5,6167.5C 7671.5,6203.5 7671.5,6239.5 7671.5,6275.5C 7641.17,6275.5 7610.83,6275.5 7580.5,6275.5C 7580.02,6393.86 7580.52,6512.19 7582,6630.5C 7584.01,6643.83 7591.18,6653 7603.5,6658C 7626.11,6659.46 7648.78,6659.96 7671.5,6659.5C 7671.5,6697.5 7671.5,6735.5 7671.5,6773.5C 7641.15,6773.82 7610.82,6773.32 7580.5,6772C 7517.95,6766.45 7480.12,6732.95 7467,6671.5C 7464.35,6658.96 7462.68,6646.3 7462,6633.5C 7461.5,6514.17 7461.33,6394.83 7461.5,6275.5C 7440.83,6275.5 7420.17,6275.5 7399.5,6275.5C 7399.5,6239.5 7399.5,6203.5 7399.5,6167.5C 7420.17,6167.5 7440.83,6167.5 7461.5,6167.5C 7461.5,6109.17 7461.5,6050.83 7461.5,5992.5 Z"/></g>
<g><path style="opacity:0.996" fill="#32cb98" d="M 2288.5,6159.5 C 2326.74,6157.1 2364.41,6160.6 2401.5,6170C 2478.4,6193.23 2528.23,6243.4 2551,6320.5C 2556.39,6340.18 2560.06,6360.18 2562,6380.5C 2563.1,6409.82 2563.6,6439.15 2563.5,6468.5C 2563.33,6493.17 2563.17,6517.83 2563,6542.5C 2561.19,6587.42 2549.85,6629.75 2529,6669.5C 2496.91,6723.49 2450.08,6757.32 2388.5,6771C 2339.5,6780.99 2290.5,6780.99 2241.5,6771C 2158.44,6750.6 2104.6,6699.44 2080,6617.5C 2071.9,6588.73 2067.57,6559.4 2067,6529.5C 2066.33,6488.17 2066.33,6446.83 2067,6405.5C 2067.29,6357.04 2078.62,6311.37 2101,6268.5C 2136.15,6210.09 2187.65,6175.26 2255.5,6164C 2266.62,6162.3 2277.62,6160.8 2288.5,6159.5 Z M 2300.5,6272.5 C 2390.41,6269.9 2438.24,6313.57 2444,6403.5C 2444.67,6446.83 2444.67,6490.17 2444,6533.5C 2436.91,6627.6 2386.41,6671.1 2292.5,6664C 2246.99,6657.35 2215.49,6632.85 2198,6590.5C 2192.12,6574.32 2188.46,6557.66 2187,6540.5C 2186.33,6492.5 2186.33,6444.5 2187,6396.5C 2188.85,6367.62 2197.85,6341.28 2214,6317.5C 2236.27,6289.95 2265.1,6274.95 2300.5,6272.5 Z"/></g>
<g><path style="opacity:0.996" fill="#32cb98" d="M 3901.5,6159.5 C 4027.07,6153.02 4108.57,6209.68 4146,6329.5C 4155.88,6362.81 4161.88,6396.81 4164,6431.5C 4165.33,6459.82 4165.83,6488.15 4165.5,6516.5C 4039.17,6516.5 3912.83,6516.5 3786.5,6516.5C 3789.98,6612.81 3839.81,6662.48 3936,6665.5C 3988.24,6663.77 4033.57,6645.43 4072,6610.5C 4098.67,6635.67 4124.5,6661.67 4149.5,6688.5C 4089.94,6746.76 4018.28,6776.76 3934.5,6778.5C 3879.01,6779.88 3827.34,6766.71 3779.5,6739C 3732.57,6707.05 3701.41,6663.55 3686,6608.5C 3675.1,6564.49 3670.93,6519.83 3673.5,6474.5C 3671.08,6427.54 3675.25,6381.21 3686,6335.5C 3717.21,6227.12 3789.05,6168.45 3901.5,6159.5 Z M 3915.5,6266.5 C 3963.41,6263.37 3999.91,6282.04 4025,6322.5C 4041.16,6352.8 4050.33,6385.13 4052.5,6419.5C 3964.17,6420.5 3875.84,6420.83 3787.5,6420.5C 3787.37,6378.73 3799.87,6341.4 3825,6308.5C 3849.57,6282.47 3879.74,6268.47 3915.5,6266.5 Z"/></g>
<g><path style="opacity:0.995" fill="#32cb98" d="M 4787.5,6159.5 C 4820.4,6157.02 4852.4,6161.19 4883.5,6172C 4932.5,6192.44 4966.33,6227.6 4985,6277.5C 5038.77,6175.38 5121.6,6139.55 5233.5,6170C 5286.4,6189.23 5323.23,6225.06 5344,6277.5C 5357.35,6313.28 5364.35,6350.28 5365,6388.5C 5365.5,6515.83 5365.67,6643.17 5365.5,6770.5C 5325.83,6770.5 5286.17,6770.5 5246.5,6770.5C 5246.67,6645.5 5246.5,6520.5 5246,6395.5C 5241.93,6316.1 5200.26,6275.1 5121,6272.5C 5060.84,6272.73 5023.84,6302.07 5010,6360.5C 5008.67,6367.45 5007.67,6374.45 5007,6381.5C 5006.5,6511.17 5006.33,6640.83 5006.5,6770.5C 4966.5,6770.5 4926.5,6770.5 4886.5,6770.5C 4886.67,6641.83 4886.5,6513.17 4886,6384.5C 4884.21,6349.76 4870.71,6320.59 4845.5,6297C 4822.28,6279.81 4796.11,6271.65 4767,6272.5C 4739.38,6271.78 4713.88,6278.61 4690.5,6293C 4661.16,6316.18 4646.66,6346.68 4647,6384.5C 4646.5,6513.17 4646.33,6641.83 4646.5,6770.5C 4606.83,6770.5 4567.17,6770.5 4527.5,6770.5C 4527.5,6569.5 4527.5,6368.5 4527.5,6167.5C 4567.17,6167.5 4606.83,6167.5 4646.5,6167.5C 4646.33,6194.84 4646.5,6222.17 4647,6249.5C 4680.14,6198.21 4726.97,6168.21 4787.5,6159.5 Z"/></g>
<g><path style="opacity:0.996" fill="#32cb98" d="M 5955.5,6159.5 C 6065.35,6151.34 6142.85,6197 6188,6296.5C 6205.27,6339.16 6215.27,6383.5 6218,6429.5C 6219.34,6458.48 6219.84,6487.48 6219.5,6516.5C 6093.16,6516.17 5966.83,6516.5 5840.5,6517.5C 5844.51,6613.51 5894.51,6662.85 5990.5,6665.5C 6042.06,6663.82 6086.73,6645.66 6124.5,6611C 6125.5,6610.33 6126.5,6610.33 6127.5,6611C 6153.35,6636.68 6179.01,6662.51 6204.5,6688.5C 6120.73,6767.13 6022.4,6794.3 5909.5,6770C 5813.22,6745.72 5755.05,6684.88 5735,6587.5C 5728.39,6550.12 5725.89,6512.46 5727.5,6474.5C 5725.73,6432.11 5728.9,6390.11 5737,6348.5C 5764.54,6233 5837.37,6170 5955.5,6159.5 Z M 5969.5,6266.5 C 6019.93,6263.46 6057.43,6283.79 6082,6327.5C 6096.56,6356.78 6104.73,6387.78 6106.5,6420.5C 6018.17,6420.5 5929.83,6420.5 5841.5,6420.5C 5841.41,6381.17 5852.57,6345.5 5875,6313.5C 5899.62,6284.11 5931.12,6268.44 5969.5,6266.5 Z"/></g>
<g><path style="opacity:0.996" fill="#32cb98" d="M 6701.5,6388.5 C 6700.5,6515.33 6700.17,6642.33 6700.5,6769.5C 6661.17,6769.5 6621.83,6769.5 6582.5,6769.5C 6582.5,6568.83 6582.5,6368.17 6582.5,6167.5C 6622.17,6167.5 6661.83,6167.5 6701.5,6167.5C 6701.33,6194.5 6701.5,6221.5 6702,6248.5C 6754.33,6172.81 6825.83,6144.98 6916.5,6165C 6977.26,6180.76 7019.76,6217.6 7044,6275.5C 7056.11,6306.71 7063.11,6339.04 7065,6372.5C 7066.46,6505.16 7066.96,6637.82 7066.5,6770.5C 7026.5,6770.5 6986.5,6770.5 6946.5,6770.5C 6946.67,6642.5 6946.5,6514.5 6946,6386.5C 6937.78,6312.11 6896.28,6274.11 6821.5,6272.5C 6791.81,6271.5 6764.81,6279.33 6740.5,6296C 6717.25,6315.67 6704.41,6340.84 6702,6371.5C 6701.5,6377.16 6701.33,6382.82 6701.5,6388.5 Z"/></g>
<g><path style="opacity:0.994" fill="#32cb98" d="M 2844.5,6167.5 C 2886.17,6167.5 2927.83,6167.5 2969.5,6167.5C 3017.64,6310.09 3066.48,6452.43 3116,6594.5C 3164.67,6452.5 3213.33,6310.5 3262,6168.5C 3303.43,6167.5 3344.93,6167.17 3386.5,6167.5C 3311.64,6368.25 3236.47,6568.91 3161,6769.5C 3145.91,6770.16 3130.74,6770.5 3115.5,6770.5C 3100.11,6770.49 3084.95,6769.83 3070,6768.5C 2994.73,6568.18 2919.56,6367.85 2844.5,6167.5 Z"/></g>
<g><path style="opacity:0.063" fill="#30bf8f" d="M 6701.5,6388.5 C 6701.5,6515.83 6701.5,6643.17 6701.5,6770.5C 6661.66,6770.83 6622,6770.5 6582.5,6769.5C 6621.83,6769.5 6661.17,6769.5 6700.5,6769.5C 6700.17,6642.33 6700.5,6515.33 6701.5,6388.5 Z"/></g>
<g><path style="opacity:0.99" fill="#32cb98" d="M 5045.5,6858.5 C 5111.17,6858.33 5176.83,6858.5 5242.5,6859C 5315.09,6868.59 5355.92,6909.75 5365,6982.5C 5369.32,7020.25 5361.65,7055.25 5342,7087.5C 5319.79,7118.54 5289.62,7136.7 5251.5,7142C 5204.86,7143.45 5158.19,7143.95 5111.5,7143.5C 5111.5,7203.5 5111.5,7263.5 5111.5,7323.5C 5089.5,7323.5 5067.5,7323.5 5045.5,7323.5C 5045.5,7168.5 5045.5,7013.5 5045.5,6858.5 Z M 5111.5,6921.5 C 5153.83,6921.33 5196.17,6921.5 5238.5,6922C 5270.28,6928.45 5289.45,6947.61 5296,6979.5C 5301.86,7007.38 5296.86,7033.05 5281,7056.5C 5269.82,7069.67 5255.66,7077.51 5238.5,7080C 5196.17,7080.5 5153.83,7080.67 5111.5,7080.5C 5111.5,7027.5 5111.5,6974.5 5111.5,6921.5 Z"/></g>
<g><path style="opacity:0.988" fill="#32cb98" d="M 6402.5,6858.5 C 6425.17,6858.5 6447.83,6858.5 6470.5,6858.5C 6470.5,6880.5 6470.5,6902.5 6470.5,6924.5C 6447.83,6924.5 6425.17,6924.5 6402.5,6924.5C 6402.5,6902.5 6402.5,6880.5 6402.5,6858.5 Z"/></g>
<g><path style="opacity:0.99" fill="#32cb98" d="M 7586.5,6894.5 C 7608.5,6894.5 7630.5,6894.5 7652.5,6894.5C 7652.5,6926.83 7652.5,6959.17 7652.5,6991.5C 7669.17,6991.5 7685.83,6991.5 7702.5,6991.5C 7702.5,7011.5 7702.5,7031.5 7702.5,7051.5C 7685.83,7051.5 7669.17,7051.5 7652.5,7051.5C 7652.02,7117.54 7652.52,7183.54 7654,7249.5C 7655.5,7256.33 7659.67,7260.5 7666.5,7262C 7678.5,7262.5 7690.5,7262.67 7702.5,7262.5C 7702.5,7283.5 7702.5,7304.5 7702.5,7325.5C 7685.5,7325.67 7668.5,7325.5 7651.5,7325C 7618.39,7322.22 7597.89,7304.72 7590,7272.5C 7588.68,7266.22 7587.68,7259.88 7587,7253.5C 7586.5,7186.17 7586.33,7118.83 7586.5,7051.5C 7575.17,7051.5 7563.83,7051.5 7552.5,7051.5C 7552.5,7031.5 7552.5,7011.5 7552.5,6991.5C 7563.83,6991.5 7575.17,6991.5 7586.5,6991.5C 7586.5,6959.17 7586.5,6926.83 7586.5,6894.5 Z"/></g>
<g><path style="opacity:0.987" fill="#32cb98" d="M 5682.5,6986.5 C 5707.3,6984.49 5730.63,6989.33 5752.5,7001C 5757.79,7004.62 5762.79,7008.62 5767.5,7013C 5753.52,7032.47 5739.19,7051.64 5724.5,7070.5C 5703.38,7050.89 5678.71,7044.72 5650.5,7052C 5625.04,7059.8 5610.87,7076.96 5608,7103.5C 5607.5,7176.83 5607.33,7250.17 5607.5,7323.5C 5585.5,7323.5 5563.5,7323.5 5541.5,7323.5C 5541.5,7212.83 5541.5,7102.17 5541.5,6991.5C 5563.5,6991.5 5585.5,6991.5 5607.5,6991.5C 5607.33,7006.17 5607.5,7020.84 5608,7035.5C 5625.58,7008.08 5650.42,6991.74 5682.5,6986.5 Z"/></g>
<g><path style="opacity:0.992" fill="#32cb98" d="M 6037.5,6986.5 C 6064.71,6984.55 6091.04,6988.39 6116.5,6998C 6151.62,7014.13 6174.12,7040.97 6184,7078.5C 6189.5,7104.54 6191.67,7130.87 6190.5,7157.5C 6191.67,7184.13 6189.5,7210.46 6184,7236.5C 6167.08,7292.74 6129.25,7323.24 6070.5,7328C 6041.47,7330.85 6013.47,7326.85 5986.5,7316C 5954.54,7300.03 5933.37,7274.86 5923,7240.5C 5916.23,7213.08 5913.73,7185.24 5915.5,7157C 5913.97,7130.17 5916.14,7103.67 5922,7077.5C 5933.93,7034.57 5961.09,7006.41 6003.5,6993C 6014.79,6989.85 6026.12,6987.68 6037.5,6986.5 Z M 6042.5,7049.5 C 6089.04,7046.21 6115.87,7067.55 6123,7113.5C 6123.67,7142.5 6123.67,7171.5 6123,7200.5C 6119.6,7236.23 6100.43,7257.73 6065.5,7265C 6018.33,7269.81 5990.83,7248.98 5983,7202.5C 5981.44,7175.86 5981.11,7149.19 5982,7122.5C 5981.95,7097.94 5991.11,7077.77 6009.5,7062C 6019.57,7055.15 6030.57,7050.98 6042.5,7049.5 Z"/></g>
<g><path style="opacity:0.99" fill="#32cb98" d="M 6794.5,6986.5 C 6855.6,6981.94 6898.76,7007.28 6924,7062.5C 6932.79,7084.33 6938.13,7107 6940,7130.5C 6941.27,7148.48 6941.77,7166.48 6941.5,7184.5C 6871.83,7184.5 6802.17,7184.5 6732.5,7184.5C 6731.88,7210.15 6740.88,7231.65 6759.5,7249C 6781.99,7264.08 6806.66,7269.08 6833.5,7264C 6854.82,7259.51 6873.48,7250.01 6889.5,7235.5C 6904.17,7249.5 6918.5,7263.83 6932.5,7278.5C 6894.83,7315.48 6849.49,7331.98 6796.5,7328C 6718.05,7319.22 6675.89,7275.38 6670,7196.5C 6669.33,7172.5 6669.33,7148.5 6670,7124.5C 6671.15,7084.68 6684.98,7050.18 6711.5,7021C 6735.3,7000.23 6762.97,6988.73 6794.5,6986.5 Z M 6797.5,7046.5 C 6832.92,7042.95 6857.09,7057.62 6870,7090.5C 6874.56,7103.47 6877.39,7116.8 6878.5,7130.5C 6829.83,7130.5 6781.17,7130.5 6732.5,7130.5C 6732.85,7104.93 6741.52,7082.76 6758.5,7064C 6769.85,7054.32 6782.85,7048.49 6797.5,7046.5 Z"/></g>
<g><path style="opacity:0.99" fill="#32cb98" d="M 7258.5,6986.5 C 7294.96,6983.76 7329.3,6990.93 7361.5,7008C 7375.42,7015.92 7386.75,7026.58 7395.5,7040C 7380.05,7054.28 7364.38,7068.45 7348.5,7082.5C 7314.69,7048.37 7275.69,7040.87 7231.5,7060C 7210.74,7073.82 7199.57,7093.32 7198,7118.5C 7197.07,7146.86 7197.4,7175.19 7199,7203.5C 7205.08,7239.58 7226.25,7260.08 7262.5,7265C 7297.24,7268.26 7325.91,7256.76 7348.5,7230.5C 7364.15,7244.98 7379.65,7259.65 7395,7274.5C 7395.42,7276.79 7394.75,7278.79 7393,7280.5C 7368.82,7307.17 7338.66,7322.67 7302.5,7327C 7271.1,7331.25 7240.43,7328.25 7210.5,7318C 7174.93,7303.09 7151.09,7277.26 7139,7240.5C 7136.23,7231.33 7134.23,7222 7133,7212.5C 7131.41,7178.52 7131.07,7144.52 7132,7110.5C 7140.41,7034.59 7182.57,6993.26 7258.5,6986.5 Z"/></g>
<g><path style="opacity:0.989" fill="#32cb98" d="M 6403.5,6991.5 C 6425.5,6991.5 6447.5,6991.5 6469.5,6991.5C 6469.67,7121.83 6469.5,7252.17 6469,7382.5C 6468.34,7407.86 6458.51,7428.69 6439.5,7445C 6429.02,7452.4 6417.35,7456.73 6404.5,7458C 6385.84,7458.5 6367.17,7458.67 6348.5,7458.5C 6348.5,7437.5 6348.5,7416.5 6348.5,7395.5C 6362.5,7395.67 6376.5,7395.5 6390.5,7395C 6398.56,7391.07 6402.72,7384.57 6403,7375.5C 6403.5,7247.5 6403.67,7119.5 6403.5,6991.5 Z"/></g>
</svg>
